<?xml version="1.0" encoding="iso-8859-1"?>
<!-- Generator: Adobe Illustrator 18.0.0, SVG Export Plug-In . SVG Version: 6.00 Build 0)  -->
<!DOCTYPE svg PUBLIC "-//W3C//DTD SVG 1.1//EN" "http://www.w3.org/Graphics/SVG/1.1/DTD/svg11.dtd">
<svg version="1.1" id="Capa_1" xmlns="http://www.w3.org/2000/svg" xmlns:xlink="http://www.w3.org/1999/xlink" x="0px" y="0px"
	 viewBox="0 0 225.25 225.25" style="enable-background:new 0 0 225.25 225.25;" xml:space="preserve">
<g>
	<path d="M217.75,124.981h-4.752l-24.451-48.9h2.939c4.143,0,7.5-3.358,7.5-7.5c0-4.142-3.357-7.5-7.5-7.5h-71.588v-6.635
		c7.803-3.021,13.359-10.584,13.359-19.44c0-11.501-9.357-20.857-20.859-20.857c-11.501,0-20.857,9.356-20.857,20.857
		c0,8.855,5.556,16.419,13.357,19.44v6.635H33.313c-4.143,0-7.5,3.358-7.5,7.5c0,4.142,3.357,7.5,7.5,7.5h3.391l-24.451,48.9H7.5
		c-4.143,0-7.5,3.358-7.5,7.5c0,26.929,21.908,48.837,48.838,48.837c26.929,0,48.836-21.908,48.836-48.837
		c0-4.142-3.357-7.5-7.5-7.5h-4.752l-24.449-48.9h43.926v101.403H81.08c-4.143,0-7.5,3.358-7.5,7.5c0,4.142,3.357,7.5,7.5,7.5
		h63.555c4.143,0,7.5-3.358,7.5-7.5c0-4.142-3.357-7.5-7.5-7.5h-24.736V76.081h44.379l-24.449,48.9h-4.752
		c-4.143,0-7.5,3.358-7.5,7.5c0,26.929,21.907,48.837,48.836,48.837c26.93,0,48.838-21.908,48.838-48.837
		C225.25,128.339,221.893,124.981,217.75,124.981z M112.398,29.148c3.23,0,5.859,2.628,5.859,5.858c0,3.23-2.629,5.857-5.859,5.857
		c-3.229,0-5.857-2.627-5.857-5.857C106.541,31.776,109.169,29.148,112.398,29.148z M48.838,166.318
		c-16.081,0-29.578-11.277-33-26.337h1.018c0.008,0,0.017,0.001,0.025,0.001c0.007,0,0.014-0.001,0.021-0.001h63.869
		c0.008,0,0.015,0.001,0.021,0.001c0.009,0,0.018-0.001,0.025-0.001h1.018C78.415,155.042,64.918,166.318,48.838,166.318z
		 M29.021,124.981l19.816-39.63l19.814,39.63H29.021z M176.412,85.351l19.816,39.63h-39.631L176.412,85.351z M176.412,166.318
		c-16.08,0-29.577-11.277-32.998-26.337h1.018c0.008,0,0.017,0.001,0.025,0.001c0.007,0,0.014-0.001,0.021-0.001h63.869
		c0.008,0,0.015,0.001,0.021,0.001c0.009,0,0.018-0.001,0.025-0.001h1.018C205.99,155.042,192.493,166.318,176.412,166.318z"/>
	<path d="M176.412,196.102H49.303c-4.143,0-7.5,3.358-7.5,7.5c0,4.142,3.357,7.5,7.5,7.5h127.109c4.143,0,7.5-3.358,7.5-7.5
		C183.912,199.46,180.555,196.102,176.412,196.102z"/>
</g>
<g>
</g>
<g>
</g>
<g>
</g>
<g>
</g>
<g>
</g>
<g>
</g>
<g>
</g>
<g>
</g>
<g>
</g>
<g>
</g>
<g>
</g>
<g>
</g>
<g>
</g>
<g>
</g>
<g>
</g>
</svg>
