<svg xmlns="http://www.w3.org/2000/svg" viewBox="0 0 512.003 512.003"><path d="M509.605 171.075l-99.3-99.301a8.177 8.177 0 0 0-11.565 0l-49.65 49.65a8.177 8.177 0 0 0 0 11.564l4.953 4.953-11.382 11.38c-7.389 7.386-18.854 9.402-28.528 5.011-9.07-4.117-19.153-6.292-29.161-6.292a70.359 70.359 0 0 0-33.814 8.633 55.047 55.047 0 0 0-13.179-1.603 54.95 54.95 0 0 0-18.829 3.31c-9.651 3.506-19.996 1.333-27.003-5.672L171.71 132.27l2.434-2.434a8.177 8.177 0 0 0 0-11.564l-49.65-49.65a8.177 8.177 0 0 0-11.565 0L2.395 179.156a8.178 8.178 0 0 0 0 11.564l49.649 49.65a8.176 8.176 0 0 0 11.566 0l2.961-2.961 14.414 14.414c3.637 3.637 6.048 8.178 6.971 13.131 4.786 25.683 17.086 49.032 35.57 67.526l2.715 2.715c-5.214 5.491-8.082 12.645-8.082 20.245 0 7.861 3.062 15.252 8.62 20.811 5.738 5.738 13.273 8.606 20.811 8.606.491 0 .98-.013 1.471-.038-.398 8.019 2.458 16.17 8.568 22.282 5.559 5.559 12.95 8.62 20.811 8.62.219 0 .437-.011.656-.016-.168 7.749 2.691 15.552 8.591 21.453 5.559 5.56 12.95 8.62 20.812 8.62 7.861 0 15.251-3.062 20.811-8.62.468-.468.909-.952 1.34-1.442a27.53 27.53 0 0 0 9.052 1.546c7.353 0 14.261-2.865 19.441-8.062a27.389 27.389 0 0 0 6.211-9.529l.837.837c5.359 5.359 12.398 8.039 19.437 8.039 7.039 0 14.078-2.68 19.437-8.039a27.373 27.373 0 0 0 6.344-9.878 27.444 27.444 0 0 0 16.158 5.236c7.039 0 14.082-2.679 19.446-8.036 5.191-5.191 8.05-12.097 8.05-19.445 0-2.22-.266-4.397-.773-6.502 5.237-1.064 10.049-3.635 13.91-7.501 5.191-5.191 8.05-12.094 8.05-19.437 0-5.785-1.782-11.292-5.073-15.91l6.56-6.56c18.699-18.708 31.052-42.35 35.725-68.371.783-4.357 2.941-8.404 6.243-11.707l24.398-24.398 4.289 4.289a8.152 8.152 0 0 0 5.783 2.395 8.154 8.154 0 0 0 5.783-2.395l49.65-49.65a8.177 8.177 0 0 0-.003-11.563zm-451.778 51.95l-38.086-38.086L118.71 85.97l38.087 38.086-98.97 98.969zm99.009 141.664c-5.097 5.096-13.392 5.098-18.493 0a12.993 12.993 0 0 1-3.83-9.247c0-3.492 1.361-6.776 3.831-9.246a13.033 13.033 0 0 1 9.245-3.824c3.348 0 6.698 1.275 9.246 3.824 5.098 5.098 5.098 13.394.001 18.493zm30.848 30.848a12.978 12.978 0 0 1-9.246 3.83 12.99 12.99 0 0 1-9.245-3.83c-5.099-5.098-5.099-13.394 0-18.493a13.033 13.033 0 0 1 9.246-3.824c3.347 0 6.697 1.275 9.245 3.824 5.1 5.098 5.1 13.395 0 18.493zm30.058 30.057a12.989 12.989 0 0 1-9.245 3.83 12.992 12.992 0 0 1-9.246-3.83c-5.099-5.098-5.099-13.394 0-18.493a13.033 13.033 0 0 1 9.246-3.824c3.347 0 6.697 1.275 9.245 3.824 5.099 5.099 5.099 13.395 0 18.493zm138.888-62.772c-2.102 2.104-4.897 3.263-7.869 3.263s-5.767-1.159-7.873-3.268l-79.33-79.312a8.178 8.178 0 0 0-11.563 11.566l85.451 85.442a11.056 11.056 0 0 1 3.26 7.872c0 2.98-1.158 5.779-3.257 7.878-4.347 4.343-11.416 4.344-15.756.003l-14.416-14.416c-.08-.083-.158-.167-.241-.249-.024-.024-.051-.045-.076-.069l-66.267-66.267a8.179 8.179 0 0 0-11.565 0 8.176 8.176 0 0 0 0 11.564l66.48 66.479a11.052 11.052 0 0 1 3.151 7.763c0 2.974-1.159 5.77-3.261 7.872-4.338 4.341-11.401 4.341-15.743 0l-72.085-72.086a8.177 8.177 0 0 0-11.565 0 8.176 8.176 0 0 0 0 11.564l53.434 53.435c.015.015.027.032.043.046a11.028 11.028 0 0 1 3.257 7.859c0 2.973-1.158 5.769-3.269 7.88a11.04 11.04 0 0 1-7.87 3.263 11.34 11.34 0 0 1-2.11-.204c1.323-8.913-1.436-18.32-8.282-25.167-5.559-5.558-12.95-8.62-20.811-8.62-.219 0-.437.011-.656.016.168-7.749-2.69-15.552-8.591-21.453-5.56-5.558-12.95-8.62-20.812-8.62-.492 0-.981.012-1.469.036.393-8.014-2.463-16.158-8.57-22.266-7.434-7.433-17.884-10.044-27.444-7.847l-5.864-5.864c-16.14-16.147-26.878-36.535-31.057-58.96-1.531-8.213-5.502-15.717-11.483-21.699l-14.415-14.415 82.01-82.01 20.438 20.438c7.856 7.856 18.552 12.06 29.507 12.06a42.87 42.87 0 0 0 14.646-2.581 38.486 38.486 0 0 1 7.144-1.832l-50.632 50.633c-6.195 6.194-9.607 14.43-9.607 23.191 0 8.76 3.412 16.996 9.606 23.19 6.394 6.394 14.79 9.59 23.19 9.589 8.398 0 16.797-3.198 23.192-9.589l25.43-25.43 6.883 6.888.005.005.286.286.275.275a.022.022 0 0 0 .005.004l.005.005.233.226 95.881 95.881a11.056 11.056 0 0 1 3.26 7.872c0 2.979-1.157 5.775-3.263 7.88zm51.507-121.988c-5.674 5.675-9.4 12.723-10.774 20.381-4.08 22.72-14.867 43.364-31.193 59.698l-6.284 6.285-51.731-51.731a45.99 45.99 0 0 0 3.39.138c5.238 0 10.598-.918 15.934-3.101a8.177 8.177 0 1 0-6.192-15.136c-21.046 8.611-46.278-15.12-49.087-17.855a5.984 5.984 0 0 0-.142-.135l-.29-.29-.003-.002-.253-.252a.022.022 0 0 0-.005-.004l-6.884-6.889 7.806-7.807a8.176 8.176 0 0 0 .001-11.565 8.178 8.178 0 0 0-11.564 0l-13.57 13.57-.016.015-.015.016-31.2 31.2c-6.412 6.411-16.842 6.409-23.252 0a16.334 16.334 0 0 1-4.815-11.626 16.33 16.33 0 0 1 4.816-11.626l53.852-53.854a54.46 54.46 0 0 1 9.905-7.837c8.503-5.256 18.324-8.034 28.401-8.034 7.693 0 15.439 1.67 22.403 4.831 15.842 7.188 34.671 3.839 46.851-8.338l11.383-11.381 66.929 66.929-24.401 24.4zm46.035-25.89l-87.736-87.736 38.087-38.086 87.736 87.736-38.087 38.086z"/><circle cx="462.41" cy="183.11" r="8.177"/><circle cx="53.567" cy="191.189" r="8.177"/></svg>