<svg xmlns="http://www.w3.org/2000/svg" viewBox="0 0 511.999 511.999"><path d="M306.587 327.029l-45.202-45.167c4.219-6.457 6.49-13.997 6.49-21.888 0-22.139-18.019-40.15-40.166-40.15-7.896 0-15.44 2.271-21.9 6.49l-45.197-45.182a8.333 8.333 0 0 0-10.799-.84l-39.237 28.614a8.327 8.327 0 0 0-.981 12.624l13.713 13.706L13.795 400.179a8.332 8.332 0 0 0 1.024 10.474l7.506 7.572-12.627 12.626a8.33 8.33 0 0 0 0 11.782l36.449 36.449a8.328 8.328 0 0 0 11.782 0l12.418-12.419 6.21 6.263a8.325 8.325 0 0 0 5.92 2.466 8.313 8.313 0 0 0 4.6-1.387l16.604-11.012 39.121 46.067a8.327 8.327 0 0 0 10.004 2.095l32.884-16.043a8.333 8.333 0 0 0 3.466-11.815l-8.268-13.611 15.861-15.845a8.33 8.33 0 0 0 1.516-9.712l-16.855-32.686 71.051-47.122 13.719 13.712a8.33 8.33 0 0 0 12.619-.981l28.628-39.217a8.334 8.334 0 0 0-.84-10.806zm-78.878-90.543c12.959.001 23.503 10.536 23.503 23.488 0 3.379-.732 6.64-2.081 9.631l-31.057-31.04a23.405 23.405 0 0 1 9.635-2.079zM52.038 461.409l-24.666-24.666 6.685-6.685 24.56 24.773-6.579 6.578zm99.275 31.934l-33.649-39.624 24.254-16.086 28.251 46.51-18.856 9.2zm20.67-38.315l-16.166-26.613 11.623-7.708 13.225 25.647-8.682 8.674zm-88.41 1.309L31.431 403.74l103.9-156.487 105.104 105.048L83.573 456.337zm187.502-96.968L128.262 216.631l25.609-18.676 135.888 135.817-18.684 25.597z"/><path d="M499.622 155.599l-51.325-21.442 52.379-87.79a8.331 8.331 0 0 0-11.459-11.401l-68.535 41.367 4.042-40.149a8.332 8.332 0 0 0-12.144-8.221l-51.391 26.816-16.85-49.15a8.33 8.33 0 0 0-7.566-5.623 8.367 8.367 0 0 0-7.969 5.033l-27.771 64.568-38.794-21.88a8.333 8.333 0 0 0-12.4 6.612l-11.662 149.958a8.33 8.33 0 0 0 7.66 8.952c4.577.348 8.595-3.073 8.952-7.66l10.65-136.925 35.488 20.016a8.332 8.332 0 0 0 11.746-3.965l22.906-53.255 12.99 37.891a8.333 8.333 0 0 0 11.735 4.684l46.292-24.155-4.165 41.361a8.332 8.332 0 0 0 12.595 7.968l54.258-32.75-40.222 67.414a8.34 8.34 0 0 0-.759 6.878 8.338 8.338 0 0 0 4.701 5.078l39.501 16.503-40.547 13.245a8.33 8.33 0 0 0-3.263 13.853l20.042 19.761-164.362 42.673a8.333 8.333 0 0 0 2.088 16.398c.692 0 1.397-.088 2.1-.27l178.573-46.363a8.333 8.333 0 0 0 3.755-13.997l-20.755-20.463 48.858-15.961a8.334 8.334 0 0 0 .628-15.609z"/><path d="M373.532 172.23a8.33 8.33 0 0 0-11.468-2.698l-69.979 43.321a8.33 8.33 0 0 0-2.699 11.469 8.326 8.326 0 0 0 11.469 2.698l69.979-43.321a8.332 8.332 0 0 0 2.698-11.469zM326.633 138.426a8.332 8.332 0 0 0-11.704 1.361l-31.657 39.988a8.333 8.333 0 0 0 13.065 10.344l31.657-39.988a8.334 8.334 0 0 0-1.361-11.705z"/></svg>