<svg xmlns="http://www.w3.org/2000/svg" viewBox="0 0 512.001 512.001"><path d="M425.564 75.376h-81.921V30.944a8.647 8.647 0 0 0-4.127-7.371l-17.197-10.54C319.735 5.465 312.572 0 304.139 0c-10.597 0-19.218 8.621-19.218 19.218s8.621 19.218 19.218 19.218c6.015 0 11.39-2.782 14.917-7.124l7.298 4.473v39.592h-61.709V57.959c6.262-3.171 10.574-9.654 10.574-17.14 0-10.597-8.621-19.218-19.218-19.218s-19.218 8.621-19.218 19.218c0 7.486 4.312 13.969 10.574 17.14v17.418h-61.71V35.785l7.298-4.473c3.527 4.341 8.9 7.124 14.917 7.124 10.597 0 19.218-8.621 19.218-19.218S218.459 0 207.862 0c-8.431 0-15.595 5.465-18.178 13.033l-17.197 10.54a8.642 8.642 0 0 0-4.127 7.371v44.433H86.437a8.644 8.644 0 0 0-8.644 8.644v45.671a8.644 8.644 0 0 0 8.644 8.644h4.776v37.026a8.644 8.644 0 0 0 8.644 8.644h14.396l9.406 265.036h-12.075a8.644 8.644 0 0 0-8.644 8.644v45.671a8.644 8.644 0 0 0 8.644 8.644h288.831a8.644 8.644 0 0 0 8.644-8.644v-45.672a8.644 8.644 0 0 0-8.644-8.644h-12.074l9.406-265.036h14.396a8.644 8.644 0 0 0 8.644-8.644v-37.026h4.776a8.644 8.644 0 0 0 8.644-8.644V84.02a8.642 8.642 0 0 0-8.643-8.644zM304.139 23.452a4.24 4.24 0 0 1-4.235-4.234 4.24 4.24 0 0 1 4.235-4.235 4.24 4.24 0 0 1 4.234 4.235 4.238 4.238 0 0 1-4.234 4.234zm-96.277-8.469a4.24 4.24 0 0 1 4.235 4.235c0 2.335-1.899 4.234-4.235 4.234s-4.235-1.899-4.235-4.234a4.24 4.24 0 0 1 4.235-4.235zm48.139 21.601c2.335 0 4.235 1.899 4.235 4.235s-1.899 4.235-4.235 4.235a4.239 4.239 0 0 1-4.234-4.235 4.238 4.238 0 0 1 4.234-4.235zm135.771 429.745v28.382H120.229v-28.382h271.543zM131.553 184.005h248.896l-9.406 265.036H140.959l-9.406-265.036zM403.5 166.717H108.502v-28.382H403.5v28.382zm13.419-45.671H95.082V92.664H416.92v28.382z"/><path d="M256.001 238.35c-43.105 0-78.174 35.069-78.174 78.174s35.068 78.173 78.174 78.173c43.105 0 78.173-35.068 78.173-78.173 0-43.105-35.068-78.174-78.173-78.174zm0 139.059c-33.572 0-60.886-27.314-60.886-60.884 0-33.573 27.314-60.886 60.886-60.886s60.885 27.314 60.885 60.886c0 33.571-27.313 60.884-60.885 60.884z"/><path d="M274.105 275.338h-36.208a8.644 8.644 0 1 0 0 17.288h36.208a8.644 8.644 0 1 0 0-17.288zM292.413 307.879h-72.825a8.644 8.644 0 1 0 0 17.288h72.825a8.644 8.644 0 1 0 0-17.288z"/></svg>